HIERARCHY
ROOT Hips
{
	OFFSET 0.000000 0.000000 0.000000
	CHANNELS 6 Xposition Yposition Zposition Xrotation Yrotation Zrotation
	JOINT LeftUpLeg_virtual
	{
		OFFSET 0.000000 0.000000 0.000000
		CHANNELS 3 Xrotation Yrotation Zrotation
		JOINT LeftUpLeg
		{
			OFFSET 11.394100 -6.187798 -0.413800
			CHANNELS 3 Xrotation Yrotation Zrotation
			JOINT LeftLeg
			{
				OFFSET 0.430247 -32.302673 3.732800
				CHANNELS 3 Xrotation Yrotation Zrotation
				JOINT LeftFoot
				{
					OFFSET -0.430247 -48.264931 -6.423300
					CHANNELS 3 Xrotation Yrotation Zrotation
					JOINT LeftToeBase
					{
						OFFSET 4.230900 -16.068199 23.438400
						CHANNELS 3 Xrotation Yrotation Zrotation
						JOINT LeftToe_End
						{
							OFFSET 4.510700 0.695400 19.974600
							CHANNELS 3 Xrotation Yrotation Zrotation
							End Site
							{
								OFFSET 0 0 0
							}
						}
					}
				}
			}
		}
	}
	JOINT RightUpLeg_virtual
	{
		OFFSET 0.000000 0.000000 0.000000
		CHANNELS 3 Xrotation Yrotation Zrotation
		JOINT RightUpLeg
		{
			OFFSET -11.333700 -6.187798 -0.413800
			CHANNELS 3 Xrotation Yrotation Zrotation
			JOINT RightLeg
			{
				OFFSET -0.430392 -32.302628 3.733000
				CHANNELS 3 Xrotation Yrotation Zrotation
				JOINT RightFoot
				{
					OFFSET 0.430392 -48.264973 -6.423500
					CHANNELS 3 Xrotation Yrotation Zrotation
					JOINT RightToeBase
					{
						OFFSET -4.230900 -16.068199 23.438400
						CHANNELS 3 Xrotation Yrotation Zrotation
						JOINT RightToe_End
						{
							OFFSET -4.510700 0.695400 19.974600
							CHANNELS 3 Xrotation Yrotation Zrotation
							End Site
							{
								OFFSET 0 0 0
							}
						}
					}
				}
			}
		}
	}
	JOINT Spine_virtual
	{
		OFFSET 0.000000 0.000000 0.000000
		CHANNELS 3 Xrotation Yrotation Zrotation
		JOINT Spine
		{
			OFFSET -0.002400 12.777504 0.315300
			CHANNELS 3 Xrotation Yrotation Zrotation
			JOINT Spine1
			{
				OFFSET -0.002067 5.816869 0.032633
				CHANNELS 3 Xrotation Yrotation Zrotation
				JOINT Spine1_split
				{
					OFFSET -0.002067 5.816869 0.032633
					CHANNELS 3 Xrotation Yrotation Zrotation
					JOINT Spine2
					{
						OFFSET -0.002067 5.816869 0.032633
						CHANNELS 3 Xrotation Yrotation Zrotation
						JOINT Neck_virtual
						{
							OFFSET 0.000000 0.000000 0.000000
							CHANNELS 3 Xrotation Yrotation Zrotation
							JOINT Neck
							{
								OFFSET -0.003700 21.199493 -0.826900
								CHANNELS 3 Xrotation Yrotation Zrotation
								JOINT Head
								{
									OFFSET 0.000000 20.442200 4.834800
									CHANNELS 3 Xrotation Yrotation Zrotation
									JOINT HeadTop_End
									{
										OFFSET 0.000000 34.668396 4.968400
										CHANNELS 3 Xrotation Yrotation Zrotation
										End Site
										{
											OFFSET 0 0 0
										}
									}
								}
							}
						}
						JOINT LeftShoulder_virtual
						{
							OFFSET 0.000000 0.000000 0.000000
							CHANNELS 3 Xrotation Yrotation Zrotation
							JOINT LeftShoulder
							{
								OFFSET 3.288150 8.794197 -1.372250
								CHANNELS 3 Xrotation Yrotation Zrotation
								JOINT LeftShoulder_split
								{
									OFFSET 3.288150 8.794197 -1.372250
									CHANNELS 3 Xrotation Yrotation Zrotation
									JOINT LeftArm
									{
										OFFSET 11.953299 -2.279007 -0.146200
										CHANNELS 3 Xrotation Yrotation Zrotation
										JOINT LeftForeArm
										{
											OFFSET 18.448900 0.000000 0.000000
											CHANNELS 3 Xrotation Yrotation Zrotation
											JOINT LeftHand
											{
												OFFSET 29.527798 0.000000 0.000000
												CHANNELS 3 Xrotation Yrotation Zrotation
												End Site
												{
													OFFSET 0 0 0
												}
											}
										}
									}
								}
							}
						}
						JOINT RightShoulder_virtual
						{
							OFFSET 0.000000 0.000000 0.000000
							CHANNELS 3 Xrotation Yrotation Zrotation
							JOINT RightShoulder
							{
								OFFSET -3.249400 8.794197 -1.372250
								CHANNELS 3 Xrotation Yrotation Zrotation
								JOINT RightShoulder_split
								{
									OFFSET -3.249400 8.794197 -1.372250
									CHANNELS 3 Xrotation Yrotation Zrotation
									JOINT RightArm
									{
										OFFSET -11.953299 -2.279007 -0.146200
										CHANNELS 3 Xrotation Yrotation Zrotation
										JOINT RightForeArm
										{
											OFFSET -18.448900 0.000000 0.000000
											CHANNELS 3 Xrotation Yrotation Zrotation
											JOINT RightHand
											{
												OFFSET -29.527802 0.000000 0.000000
												CHANNELS 3 Xrotation Yrotation Zrotation
												End Site
												{
													OFFSET 0 0 0
												}
											}
										}
									}
								}
							}
						}
					}
				}
			}
		}
	}
}
MOTION
Frames: 6
Frame Time: 0.03333333
-131.794281 37.923470 4.471539 0.000000 0.000000 0.000000 5.598064 10.497095 -43.156718 -124.567146 -0.758874 4.361227 27.349385 4.442600 2.069424 40.458595 -1.367681 26.150293 -5.207170 3.231517 5.315605 0.000000 0.000000 0.000000 7.806303 12.359186 -45.439452 -112.783280 -15.845419 -22.674497 113.116491 5.906241 -0.130155 25.148116 25.663562 2.856423 -57.939081 3.899523 0.260022 0.000000 0.000000 0.000000 4.405834 8.227667 -46.565160 23.780658 -3.732362 -14.258555 4.083208 1.261471 -2.948041 1.852823 0.659693 2.705829 0.000000 0.000000 0.000000 4.843680 1.159840 -3.195500 -2.700914 -1.248369 1.844263 -4.018144 18.302563 4.214135 0.000000 0.000000 0.000000 4.481610 1.374463 -2.931275 0.347922 -23.929266 -12.572305 -3.644340 -2.390159 -1.686992 -39.738058 34.653381 -10.858639 4.389827 -69.841150 4.154004 0.000000 0.000000 0.000000 4.880505 1.178605 -2.986758 2.807426 9.110019 -0.005177 8.241272 7.650592 -0.690949 -45.544559 -33.675544 -10.730168 -1.676705 50.760443 0.164870 0.000000 0.000000 0.000000 
-130.617905 40.295361 3.217350 0.000000 0.000000 0.000000 5.058536 7.258924 -46.175740 -126.657703 -2.561902 5.911986 36.669274 7.120444 1.289213 37.554262 -0.034755 26.307727 -5.599412 3.507748 3.515216 0.000000 0.000000 0.000000 7.468221 9.797621 -48.224216 -108.545728 -19.055828 -19.670636 108.294910 5.212529 -0.354102 24.744804 25.681687 2.943304 -53.365750 4.140071 -0.428494 0.000000 0.000000 0.000000 4.226384 7.107199 -49.074680 23.212285 -4.471901 -14.510826 4.319268 0.887558 -2.989626 2.021350 1.617040 2.379292 0.000000 0.000000 0.000000 4.676373 0.819794 -3.295146 -2.469554 -0.734668 2.047799 -4.011143 19.709218 4.617681 0.000000 0.000000 0.000000 4.609167 1.044966 -3.073219 1.444979 -22.678806 -11.249725 -3.787297 -3.210361 -1.582294 -42.411882 32.141443 -9.271286 3.747641 -66.890952 3.788455 0.000000 0.000000 0.000000 4.958760 0.859146 -3.093782 2.786827 8.775600 -0.943212 8.226907 6.565320 -1.296779 -45.627190 -38.512701 -13.184893 -1.256973 51.820700 0.091443 0.000000 0.000000 0.000000 
-129.523926 43.214573 2.015923 0.000000 0.000000 0.000000 5.200115 3.491373 -49.797933 -128.730870 -5.100345 7.843021 50.776685 9.007192 0.172691 32.794187 1.518516 26.530705 -7.893474 3.625528 2.334350 0.000000 0.000000 0.000000 8.016003 6.921847 -51.683297 -104.508704 -22.183064 -16.315983 102.288373 4.652032 -0.095417 25.551504 25.805186 3.502782 -49.391195 4.376284 -1.418187 0.000000 0.000000 0.000000 4.807077 5.206754 -51.932274 22.840523 -5.282689 -14.095169 4.409507 0.376666 -2.940835 2.125361 2.855203 1.819852 0.000000 0.000000 0.000000 4.354001 0.313931 -3.229311 -2.189878 -0.083272 2.215498 -4.471710 20.955553 5.399536 0.000000 0.000000 0.000000 4.594328 0.566311 -3.106930 2.458314 -21.109555 -9.584308 -3.733228 -3.657027 -1.860653 -46.145137 28.756746 -7.194089 2.665902 -63.152455 2.928558 0.000000 0.000000 0.000000 4.875892 0.411267 -3.057264 2.610898 7.931858 -1.371033 8.088486 5.227712 -1.868555 -46.871340 -44.302533 -14.683228 -0.982934 54.103909 0.221911 0.000000 0.000000 0.000000 
-128.667160 46.755875 0.587013 0.000000 0.000000 0.000000 6.185724 -0.209346 -53.345789 -129.556640 -7.517213 9.796465 65.891709 9.776699 -0.992709 25.698889 2.755629 26.924763 -11.595872 3.444899 2.035844 0.000000 0.000000 0.000000 9.286274 3.680344 -55.204806 -101.388421 -24.608994 -13.069204 94.525768 4.312233 0.677452 28.324183 26.112959 4.905236 -44.666975 4.566854 -2.569759 0.000000 0.000000 0.000000 6.096591 2.684790 -54.727505 22.574055 -6.134708 -13.203927 4.320261 -0.201635 -2.859630 1.937353 3.778663 1.115493 0.000000 0.000000 0.000000 3.942228 -0.292686 -3.047152 -1.846868 0.630708 2.278202 -5.433397 21.902369 6.560007 0.000000 0.000000 0.000000 4.454110 0.004719 -3.050432 3.283473 -19.360250 -7.624982 -3.050488 -3.695666 -2.125647 -50.270534 25.168477 -5.229006 1.462317 -59.784338 1.776772 0.000000 0.000000 0.000000 4.672666 -0.126375 -2.941234 2.317178 6.523312 -1.477610 7.929157 3.873943 -2.248073 -48.727205 -50.866195 -15.269327 -0.901475 57.605392 0.569941 0.000000 0.000000 0.000000 
-128.022842 50.793236 -1.217384 0.000000 0.000000 0.000000 7.985660 -3.211634 -56.327194 -128.739230 -9.590310 11.527605 78.365643 8.868099 -1.328175 17.776508 3.122881 26.459154 -16.631342 2.820825 2.942595 0.000000 0.000000 0.000000 10.943344 0.313001 -58.176266 -99.487272 -26.093906 -10.380136 84.986739 4.112891 1.803878 32.517250 26.584942 7.425000 -37.740583 4.600888 -3.573712 0.000000 0.000000 0.000000 7.995207 -0.259031 -57.154709 22.480960 -7.035117 -12.125026 4.116540 -0.754824 -2.803551 1.641994 3.821754 0.911567 0.000000 0.000000 0.000000 3.577228 -0.925372 -2.806314 -1.541264 1.325364 2.168467 -6.816181 22.427449 7.938510 0.000000 0.000000 0.000000 4.202450 -0.581483 -2.959444 3.830514 -17.933150 -5.519942 -1.761301 -3.192377 -2.309268 -54.926165 21.244648 -3.665927 0.678312 -56.467650 0.710024 0.000000 0.000000 0.000000 4.450041 -0.713870 -2.806113 1.958684 4.843051 -1.406994 8.084676 2.865388 -2.471543 -50.162849 -57.664924 -14.712946 -0.939933 61.249981 1.004196 0.000000 0.000000 0.000000 
-127.537598 55.030602 -3.296825 0.000000 0.000000 0.000000 10.535757 -5.752434 -58.352464 -126.433973 -11.540489 12.835598 86.955418 6.581172 -0.694580 11.061555 3.126352 24.810375 -22.834892 1.624154 4.589904 0.000000 0.000000 0.000000 12.833103 -2.935818 -60.148196 -98.906542 -26.611202 -8.397148 74.310074 3.730339 3.229431 36.597970 26.767324 10.490625 -28.282483 4.420610 -4.175132 0.000000 0.000000 0.000000 10.447884 -3.120580 -58.882303 22.688830 -7.971694 -11.044061 3.878842 -1.241633 -2.801703 1.645011 2.934184 0.724926 0.000000 0.000000 0.000000 3.298818 -1.540531 -2.568557 -1.459813 1.926231 1.957364 -8.506028 22.505361 9.339371 0.000000 0.000000 0.000000 3.950105 -1.152455 -2.869957 4.109621 -17.302105 -3.296374 -0.196534 -2.495463 -2.376493 -59.886559 16.921787 -2.506149 0.344436 -52.317169 -0.082960 0.000000 0.000000 0.000000 4.285732 -1.305557 -2.703073 1.607675 3.387036 -1.236470 8.220463 2.483239 -2.744198 -49.528734 -63.966873 -12.160217 -0.976109 63.691343 1.379831 0.000000 0.000000 0.000000 
